<svg width="25" height="25" viewBox="0 0 25 25" fill="none" xmlns="http://www.w3.org/2000/svg">
<path d="M6.25 17.5H1.25C0.918479 17.5 0.600537 17.6317 0.366117 17.8661C0.131696 18.1006 0 18.4185 0 18.75C0 19.0816 0.131696 19.3995 0.366117 19.6339C0.600537 19.8683 0.918479 20 1.25 20H5V23.75C5 24.0816 5.1317 24.3995 5.36612 24.6339C5.60054 24.8683 5.91848 25 6.25 25C6.58152 25 6.89946 24.8683 7.13388 24.6339C7.3683 24.3995 7.5 24.0816 7.5 23.75V18.75C7.50009 18.5859 7.46782 18.4233 7.40504 18.2716C7.34225 18.1199 7.25018 17.982 7.13409 17.8659C7.018 17.7498 6.88016 17.6578 6.72847 17.595C6.57677 17.5322 6.41418 17.4999 6.25 17.5Z" fill="white"/>
<path d="M23.7499 17.5H18.7499C18.5857 17.4999 18.4231 17.5322 18.2714 17.595C18.1197 17.6578 17.9819 17.7498 17.8658 17.8659C17.7497 17.982 17.6576 18.1199 17.5948 18.2716C17.5321 18.4233 17.4998 18.5859 17.4999 18.75V23.75C17.4999 24.0816 17.6316 24.3995 17.866 24.6339C18.1004 24.8683 18.4184 25 18.7499 25C19.0814 25 19.3993 24.8683 19.6338 24.6339C19.8682 24.3995 19.9999 24.0816 19.9999 23.75V20H23.7499C24.0814 20 24.3993 19.8683 24.6338 19.6339C24.8682 19.3995 24.9999 19.0816 24.9999 18.75C24.9999 18.4185 24.8682 18.1006 24.6338 17.8661C24.3993 17.6317 24.0814 17.5 23.7499 17.5Z" fill="white"/>
<path d="M18.7499 7.5H23.7499C24.0814 7.5 24.3993 7.3683 24.6338 7.13388C24.8682 6.89946 24.9999 6.58152 24.9999 6.25C24.9999 5.91848 24.8682 5.60054 24.6338 5.36612C24.3993 5.1317 24.0814 5 23.7499 5H19.9999V1.25C19.9999 0.918479 19.8682 0.600537 19.6338 0.366117C19.3993 0.131696 19.0814 0 18.7499 0C18.4184 0 18.1004 0.131696 17.866 0.366117C17.6316 0.600537 17.4999 0.918479 17.4999 1.25V6.25C17.4998 6.41418 17.5321 6.57677 17.5948 6.72847C17.6576 6.88016 17.7497 7.018 17.8658 7.13409C17.9819 7.25018 18.1197 7.34225 18.2714 7.40504C18.4231 7.46782 18.5857 7.50009 18.7499 7.5Z" fill="white"/>
<path d="M6.25 2.00941e-07C6.08582 -9.29127e-05 5.92323 0.0321757 5.77154 0.0949611C5.61984 0.157747 5.482 0.249817 5.36591 0.365909C5.24982 0.482001 5.15775 0.619837 5.09496 0.771536C5.03218 0.923235 4.99991 1.08582 5 1.25V5H1.25C0.918479 5 0.600537 5.1317 0.366117 5.36612C0.131696 5.60054 0 5.91848 0 6.25C0 6.58152 0.131696 6.89946 0.366117 7.13388C0.600537 7.3683 0.918479 7.5 1.25 7.5H6.25C6.41418 7.50009 6.57677 7.46782 6.72847 7.40504C6.88016 7.34225 7.018 7.25018 7.13409 7.13409C7.25018 7.018 7.34225 6.88016 7.40504 6.72846C7.46782 6.57677 7.50009 6.41418 7.5 6.25V1.25C7.50009 1.08582 7.46782 0.923235 7.40504 0.771536C7.34225 0.619837 7.25018 0.482001 7.13409 0.365909C7.018 0.249817 6.88016 0.157747 6.72847 0.0949611C6.57677 0.0321757 6.41418 -9.29127e-05 6.25 2.00941e-07Z" fill="white"/>
</svg>
