<svg width="25" height="25" viewBox="0 0 25 25" fill="none" xmlns="http://www.w3.org/2000/svg">
<path d="M2.83341 0.416656C1.49873 0.416656 0.416748 1.49863 0.416748 2.83332V7.66666C0.416748 8.33399 0.957743 8.87499 1.62508 8.87499C2.29242 8.87499 2.83341 8.33399 2.83341 7.66666V2.83332H7.66675C8.33409 2.83332 8.87508 2.29233 8.87508 1.62499C8.87508 0.957651 8.33409 0.416656 7.66675 0.416656H2.83341Z" fill="white"/>
<path d="M22.1667 0.416656C23.5015 0.416656 24.5834 1.49863 24.5834 2.83332V7.66666C24.5834 8.33399 24.0424 8.87499 23.3751 8.87499C22.7077 8.87499 22.1667 8.33399 22.1667 7.66666V2.83332H17.3334C16.666 2.83332 16.1251 2.29233 16.1251 1.62499C16.1251 0.957651 16.666 0.416656 17.3334 0.416656H22.1667Z" fill="white"/>
<path d="M22.1667 24.5833C23.5015 24.5833 24.5834 23.5014 24.5834 22.1667V17.3333C24.5834 16.666 24.0424 16.125 23.3751 16.125C22.7077 16.125 22.1667 16.666 22.1667 17.3333V22.1667H17.3334C16.666 22.1667 16.1251 22.7076 16.1251 23.375C16.1251 24.0424 16.666 24.5833 17.3334 24.5833H22.1667Z" fill="white"/>
<path d="M0.416748 22.1667C0.416748 23.5014 1.49873 24.5833 2.83341 24.5833H7.66675C8.33409 24.5833 8.87508 24.0424 8.87508 23.375C8.87508 22.7076 8.33409 22.1667 7.66675 22.1667H2.83341V17.3333C2.83341 16.666 2.29242 16.125 1.62508 16.125C0.957743 16.125 0.416748 16.666 0.416748 17.3333V22.1667Z" fill="white"/>
</svg>
