<svg width="29" height="29" viewBox="0 0 29 29" fill="none" xmlns="http://www.w3.org/2000/svg">
<path fill-rule="evenodd" clip-rule="evenodd" d="M14.5 0C22.5082 0 29 6.49181 29 14.5C29 22.5081 22.5082 29 14.5 29C6.4919 29 0 22.5081 0 14.5C0 6.49181 6.4919 0 14.5 0ZM15.9532 13.05H13.0532V21.75H15.9532V13.05ZM14.5147 6.8875C13.4576 6.8875 12.6907 7.65013 12.6907 8.67989C12.6907 9.75131 13.4373 10.5125 14.5147 10.5125C15.5502 10.5125 16.3157 9.75131 16.3157 8.7C16.3157 7.65013 15.5502 6.8875 14.5147 6.8875Z" fill="white"/>
</svg>
