<svg width="29" height="29" viewBox="0 0 29 29" fill="none" xmlns="http://www.w3.org/2000/svg">
<path d="M14.5 0C10.5624 0 10.0688 0.0250355 8.52238 0.088675C6.97915 0.159164 5.92727 0.400645 5.00511 0.759222C4.05164 1.12962 3.23978 1.62758 2.43376 2.43365C1.62772 3.23971 1.1344 4.04713 0.763927 5.00054C0.405413 5.92279 0.159298 6.97897 0.0889022 8.5222C0.0181866 10.0686 0 10.5623 0 14.4998C0 18.4376 0.0181808 18.931 0.0889022 20.4774C0.159391 22.0206 0.405413 23.0725 0.763927 23.9947C1.1344 24.9481 1.62772 25.7556 2.43376 26.5616C3.23978 27.3677 4.05164 27.8652 5.00511 28.2358C5.92727 28.5942 6.97915 28.8404 8.52238 28.9109C10.0688 28.9814 10.5624 28.995 14.5 28.995C18.4376 28.995 18.9312 28.9723 20.4776 28.9109C22.0208 28.8404 23.0772 28.5942 23.9993 28.2358C24.9528 27.8652 25.7602 27.3677 26.5662 26.5616C27.3723 25.7556 27.8656 24.9481 28.236 23.9947C28.5946 23.0725 28.8407 22.0206 28.9111 20.4774C28.9818 18.931 29 18.4376 29 14.4998C29 10.5623 28.9818 10.0686 28.9111 8.5222C28.8406 6.97897 28.5946 5.92279 28.236 5.00054C27.8656 4.04713 27.3723 3.23971 26.5662 2.43365C25.7602 1.62758 24.9528 1.12962 23.9993 0.759222C23.0772 0.400645 22.0208 0.159164 20.4776 0.088675C18.9312 0.0181867 18.4376 0 14.5 0ZM14.5 2.61123C18.3713 2.61123 18.8288 2.63394 20.3577 2.69536C21.7712 2.75903 22.5425 2.99868 23.0534 3.19719C23.7302 3.46027 24.2115 3.7736 24.7188 4.28088C25.2262 4.78817 25.5395 5.26953 25.8024 5.94621C26.0009 6.45714 26.2397 7.22841 26.3042 8.6418C26.3738 10.1707 26.3886 10.6284 26.3886 14.4996C26.3886 18.3709 26.3727 18.8287 26.3042 20.3573C26.2397 21.771 26.0009 22.5377 25.8024 23.0486C25.5395 23.7253 25.2262 24.2107 24.7188 24.7183C24.2115 25.2255 23.7302 25.5389 23.0534 25.8019C22.5425 25.9998 21.7712 26.2351 20.3577 26.2995C18.829 26.3699 18.3716 26.3836 14.5 26.3836C10.6284 26.3836 10.171 26.3609 8.64231 26.2995C7.22875 26.2358 6.46193 26.0005 5.95104 25.8019C5.27426 25.5389 4.78853 25.2255 4.28122 24.7183C3.77394 24.2107 3.46065 23.7253 3.19762 23.0486C2.99912 22.5377 2.76476 21.771 2.70023 20.3573C2.63064 18.8287 2.61587 18.3709 2.61587 14.4996C2.61587 10.6284 2.63178 10.1707 2.70023 8.6418C2.7648 7.22841 2.99912 6.45714 3.19762 5.94621C3.46065 5.26953 3.77394 4.78817 4.28122 4.28088C4.78853 3.7736 5.27426 3.46027 5.95104 3.19719C6.46193 2.99937 7.22875 2.75994 8.64231 2.69536C10.1712 2.62488 10.6287 2.61123 14.5 2.61123ZM22.2407 5.01828C21.2799 5.01828 20.4998 5.79819 20.4998 6.7591C20.4998 7.72 21.2799 8.49992 22.2407 8.49992C23.2016 8.49992 23.9816 7.72 23.9816 6.7591C23.9816 5.79819 23.2016 5.01828 22.2407 5.01828ZM14.5 7.05219C10.3882 7.05219 7.05685 10.3881 7.05685 14.4998C7.05685 18.6117 10.3882 21.9429 14.5 21.9429C18.6118 21.9429 21.9476 18.6117 21.9476 14.4998C21.9476 10.3881 18.6118 7.05219 14.5 7.05219ZM14.5 9.66797C17.1691 9.66797 19.3318 11.8308 19.3318 14.4998C19.3318 17.169 17.1691 19.3316 14.5 19.3316C11.8309 19.3316 9.66817 17.169 9.66817 14.4998C9.66817 11.8308 11.8309 9.66797 14.5 9.66797Z" fill="white"/>
</svg>
