<svg width="32" height="37" viewBox="0 0 35 37" fill="none" xmlns="http://www.w3.org/2000/svg">
<path d="M12.375 29.4583C12.375 32.2889 10.0805 34.5833 7.25 34.5833C4.41955 34.5833 2.125 32.2889 2.125 29.4583C2.125 26.6278 4.41955 24.3333 7.25 24.3333C10.0805 24.3333 12.375 26.6278 12.375 29.4583Z" stroke="white" stroke-width="3"/>
<path d="M32.875 26.0417C32.875 28.8722 30.5805 31.1667 27.75 31.1667C24.9195 31.1667 22.625 28.8722 22.625 26.0417C22.625 23.2111 24.9195 20.9167 27.75 20.9167C30.5805 20.9167 32.875 23.2111 32.875 26.0417Z" stroke="white" stroke-width="3"/>
<path d="M12.375 29.4583V10.6667" stroke="white" stroke-width="3"/>
<path d="M23.8808 3.4142L17.0475 5.69197C14.7925 6.44367 13.6648 6.8195 13.0199 7.71429C12.375 8.60907 12.375 9.79759 12.375 12.1746V17.4995L32.875 10.6661V9.89686C32.875 5.57057 32.875 3.40743 31.4561 2.38476C30.0371 1.36206 27.9851 2.04611 23.8808 3.4142Z" stroke="white" stroke-width="3" stroke-linecap="round"/>
</svg>
