<svg width="30" height="36" viewBox="0 0 44 36" fill="none" xmlns="http://www.w3.org/2000/svg">
<path fill-rule="evenodd" clip-rule="evenodd" d="M15.3336 23.1719V11.4645C12.7773 9.45603 14.4574 10.7285 6.96364 5.15714C6.23639 4.6302 4.38105 5.02912 4.38105 6.05873C4.38105 35.0445 2.11606 33.2497 15.3336 23.1719ZM21.1823 29.764C21.9906 29.764 37.1008 18.7051 37.7602 18.2333C38.4086 17.7636 38.3735 16.8753 37.793 16.4564L22.1549 5.13937C21.4408 4.62346 19.7147 5.01774 19.7147 6.02751C19.7147 29.314 18.9918 29.764 21.1823 29.764ZM6.01298 0.529116C8.5956 0.529116 9.31413 1.47716 15.3381 5.99468C15.36 2.76253 18.3566 0.513507 21.1823 0.513507C23.3071 0.513507 26.4593 3.49892 39.4293 13.2284V2.20474C39.4293 0.98552 40.4107 0 41.6198 0C42.829 0 43.8104 0.98552 43.8104 2.20474V33.0711C43.8104 34.2881 42.829 35.2759 41.6198 35.2759C40.4107 35.2759 39.4293 34.2881 39.4293 33.0711V22.0474L24.7134 32.9102C23.7189 33.6289 22.2579 34.0631 21.1823 34.0631C18.3806 34.0631 15.4213 31.9094 15.3468 28.7235C9.68651 32.9611 8.7424 34.145 5.9232 34.145C3.07772 34.145 2.00272e-05 31.8896 2.00272e-05 28.6288V6.05873C2.00272e-05 2.79792 3.1675 0.529116 6.01298 0.529116Z" fill="white"/>
</svg>
