<svg width="29" height="28" viewBox="0 0 29 28" fill="none" xmlns="http://www.w3.org/2000/svg">
<path d="M2.31555 21.3874C2.31555 23.6661 2.31555 24.8055 3.03855 25.5135C3.76153 26.2214 4.92517 26.2214 7.25244 26.2214C9.57971 26.2214 10.7434 26.2214 11.4663 25.5135C12.1893 24.8055 12.1893 23.6661 12.1893 21.3874V6.88539C12.1893 4.60662 12.1893 3.46723 11.4663 2.75932C10.7434 2.05139 9.57971 2.05139 7.25244 2.05139C4.92517 2.05139 3.76153 2.05139 3.03855 2.75932C2.31555 3.46723 2.31555 4.60662 2.31555 6.88539V16.5534" stroke="white" stroke-width="3" stroke-linecap="round"/>
<path d="M27 6.88539C27 4.60662 27 3.46723 26.277 2.75932C25.554 2.05139 24.3903 2.05139 22.0631 2.05139C19.7359 2.05139 18.5722 2.05139 17.8492 2.75932C17.1262 3.46723 17.1262 4.60662 17.1262 6.88539V21.3874C17.1262 23.6661 17.1262 24.8055 17.8492 25.5135C18.5722 26.2214 19.7359 26.2214 22.0631 26.2214C24.3903 26.2214 25.554 26.2214 26.277 25.5135C27 24.8055 27 23.6661 27 21.3874V11.7194" stroke="white" stroke-width="3" stroke-linecap="round"/>
</svg>
