<svg width="30" height="36" viewBox="0 0 44 36" fill="none" xmlns="http://www.w3.org/2000/svg">
<path fill-rule="evenodd" clip-rule="evenodd" d="M28.4767 23.1719V11.4645C31.0331 9.45603 29.353 10.7285 36.8467 5.15714C37.574 4.6302 39.4293 5.02912 39.4293 6.05873C39.4293 35.0445 41.6943 33.2497 28.4767 23.1719ZM22.628 29.764C21.8197 29.764 6.70954 18.7051 6.05019 18.2333C5.4018 17.7636 5.43685 16.8753 6.01734 16.4564L21.6555 5.13937C22.3696 4.62346 24.0957 5.01774 24.0957 6.02751C24.0957 29.314 24.8186 29.764 22.628 29.764ZM37.7974 0.529116C35.2148 0.529116 34.4962 1.47716 28.4723 5.99468C28.4504 2.76253 25.4538 0.513507 22.628 0.513507C20.5032 0.513507 17.3511 3.49892 4.38103 13.2284V2.20474C4.38103 0.98552 3.39968 0 2.19052 0C0.981352 0 0 0.98552 0 2.20474V33.0711C0 34.2881 0.981352 35.2759 2.19052 35.2759C3.39968 35.2759 4.38103 34.2881 4.38103 33.0711V22.0474L19.0969 32.9102C20.0914 33.6289 21.5525 34.0631 22.628 34.0631C25.4297 34.0631 28.3891 31.9094 28.4636 28.7235C34.1239 32.9611 35.068 34.145 37.8872 34.145C40.7326 34.145 43.8103 31.8896 43.8103 28.6288V6.05873C43.8103 2.79792 40.6429 0.529116 37.7974 0.529116Z" fill="white"/>
</svg>
