<svg width="40" height="40" viewBox="0 0 51 51" fill="none" xmlns="http://www.w3.org/2000/svg">
<path d="M28.1056 51.0001H22.8944C21.0094 51.0001 19.4759 49.4666 19.4759 47.5817V43.8708C18.5498 43.5668 17.6446 43.1912 16.7712 42.7482L14.1456 45.3738C12.8128 46.7066 10.644 46.7066 9.31118 45.3738L5.62627 41.6888C4.29356 40.356 4.29356 38.1874 5.62627 36.8545L8.25196 34.2288C7.80911 33.3555 7.43332 32.4503 7.12945 31.5241H3.41833C1.53346 31.5241 0 29.9906 0 28.1057V22.8944C0 21.0095 1.53346 19.476 3.41833 19.476H7.12935C7.43321 18.5498 7.80891 17.6446 8.25186 16.7713L5.62627 14.1456C4.29356 12.8127 4.29356 10.6441 5.62627 9.31128L9.31118 5.62627C10.644 4.29356 12.8128 4.29356 14.1456 5.62627L16.7712 8.25186C17.6446 7.80891 18.5498 7.43321 19.4759 7.12935V3.41843C19.4759 1.53346 21.0095 0 22.8945 0H28.1057C29.9907 0 31.5242 1.53346 31.5242 3.41843V7.12935C32.4503 7.43332 33.3555 7.80891 34.2289 8.25186L36.8545 5.62627C38.1873 4.29346 40.3561 4.29346 41.6889 5.62627L45.3738 9.31118C46.7065 10.644 46.7065 12.8126 45.3738 14.1455L42.7481 16.7712C43.191 17.6445 43.5668 18.5497 43.8707 19.4759H47.5817C49.4666 19.4759 51 21.0094 51 22.8943V28.1056C51 29.9905 49.4665 31.524 47.5817 31.524H43.8707C43.5668 32.4502 43.1911 33.3554 42.7481 34.2287L45.3738 36.8543C46.7065 38.1872 46.7065 40.3558 45.3738 41.6886L41.6889 45.3736C40.3561 46.7063 38.1873 46.7063 36.8545 45.3736L34.2289 42.748C33.3555 43.191 32.4503 43.5667 31.5242 43.8706V47.5815C31.5242 49.4666 29.9906 51.0001 28.1056 51.0001ZM16.5849 40.482C16.7541 40.482 16.9246 40.5243 17.08 40.611C18.2494 41.2642 19.4907 41.7792 20.7691 42.1418C21.2063 42.2659 21.5078 42.6649 21.5078 43.1193V47.5817C21.5078 48.3462 22.1299 48.9682 22.8944 48.9682H28.1056C28.8701 48.9682 29.4922 48.3462 29.4922 47.5817V43.1193C29.4922 42.6649 29.7938 42.2659 30.2309 42.1418C31.5093 41.7791 32.7506 41.2642 33.92 40.611C34.3167 40.3895 34.8124 40.4582 35.1338 40.7797L38.2911 43.9371C38.8316 44.4776 39.7114 44.4778 40.252 43.9371L43.9369 40.2522C44.4775 39.7116 44.4775 38.832 43.9369 38.2913L40.7795 35.134C40.4581 34.8126 40.3892 34.317 40.6109 33.9203C41.264 32.7509 41.779 31.5096 42.1417 30.2311C42.2658 29.794 42.6647 29.4924 43.1191 29.4924H47.5816C48.3461 29.4924 48.968 28.8704 48.968 28.1059V22.8946C48.968 22.1301 48.3461 21.5081 47.5816 21.5081H43.1191C42.6647 21.5081 42.2658 21.2065 42.1417 20.7694C41.779 19.4909 41.2639 18.2496 40.6109 17.0803C40.3892 16.6835 40.4581 16.1879 40.7795 15.8665L43.9369 12.7091C44.4775 12.1685 44.4775 11.2889 43.9369 10.7482L40.252 7.06331C39.7115 6.52283 38.8317 6.52263 38.2911 7.06331L35.1338 10.2206C34.8125 10.5421 34.317 10.6108 33.92 10.3893C32.7506 9.73614 31.5093 9.22106 30.2309 8.85847C29.7937 8.73443 29.4922 8.33537 29.4922 7.88104V3.41843C29.4922 2.65394 28.8701 2.03188 28.1056 2.03188H22.8944C22.1299 2.03188 21.5078 2.65394 21.5078 3.41843V7.88084C21.5078 8.33516 21.2062 8.73422 20.7691 8.85827C19.4907 9.22096 18.2494 9.73594 17.08 10.3891C16.6833 10.6107 16.1876 10.5418 15.8662 10.2204L12.7089 7.06301C12.1684 6.52253 11.2886 6.52232 10.748 7.06301L7.06311 10.7479C6.52253 11.2885 6.52253 12.1681 7.06311 12.7088L10.2205 15.8661C10.5419 16.1875 10.6108 16.6831 10.3891 17.0799C9.73604 18.2492 9.22096 19.4905 8.85827 20.769C8.73422 21.2061 8.33527 21.5077 7.88094 21.5077H3.41833C2.65383 21.5077 2.03188 22.1297 2.03188 22.8942V28.1055C2.03188 28.87 2.65383 29.492 3.41833 29.492H7.88084C8.33516 29.492 8.73412 29.7936 8.85817 30.2307C9.22086 31.5092 9.73604 32.7505 10.389 33.9198C10.6107 34.3166 10.5418 34.8122 10.2204 35.1336L7.06301 38.291C6.52243 38.8316 6.52243 39.7112 7.06301 40.2519L10.7479 43.9368C11.2884 44.4773 12.1682 44.4775 12.7088 43.9368L15.8661 40.7795C16.0618 40.5841 16.3219 40.482 16.5849 40.482ZM25.5001 36.0263C19.6958 36.0263 14.9738 31.3042 14.9738 25.5001C14.9738 19.6959 19.6958 14.9738 25.5001 14.9738C31.3043 14.9738 36.0263 19.6959 36.0263 25.5001C36.0263 31.3042 31.3043 36.0263 25.5001 36.0263ZM25.5001 17.0057C20.8162 17.0057 17.0057 20.8163 17.0057 25.5001C17.0057 30.1838 20.8163 33.9944 25.5001 33.9944C30.1838 33.9944 33.9944 30.1838 33.9944 25.5001C33.9944 20.8163 30.1839 17.0057 25.5001 17.0057Z" fill="white"/>
<path d="M12.2929 26.5159C11.7319 26.5159 11.2769 26.0611 11.2769 25.5C11.2769 22.7424 12.0672 20.0676 13.5626 17.7644C15.0185 15.5219 17.0654 13.7393 19.4821 12.6093C19.9903 12.3714 20.595 12.591 20.8327 13.0992C21.0705 13.6075 20.851 14.2122 20.3427 14.4498C16.0698 16.4479 13.3088 20.7853 13.3088 25.5C13.3088 26.0611 12.8539 26.5159 12.2929 26.5159Z" fill="white"/>
<path d="M30.7823 14.4078C30.6465 14.4078 30.5085 14.3803 30.376 14.3225C28.8362 13.6498 27.1956 13.3086 25.5001 13.3086C24.9391 13.3086 24.4841 12.8538 24.4841 12.2927C24.4841 11.7316 24.9391 11.2767 25.5001 11.2767C27.4774 11.2767 29.3916 11.675 31.1896 12.4606C31.7038 12.6852 31.9385 13.2841 31.7138 13.7983C31.547 14.1801 31.1739 14.4078 30.7823 14.4078Z" fill="white"/>
</svg>
