<svg width="39" height="27" viewBox="0 0 39 27" fill="none" xmlns="http://www.w3.org/2000/svg">
<path d="M37.6277 4.30945C37.1846 2.66383 35.8871 1.36632 34.2415 0.923273C31.2351 0.100464 19.2094 0.100464 19.2094 0.100464C19.2094 0.100464 7.18375 0.100464 4.17734 0.891626C2.56337 1.33468 1.23421 2.66383 0.791162 4.30945C0 7.31586 0 13.5502 0 13.5502C0 13.5502 0 19.8162 0.791162 22.791C1.23421 24.4366 2.53172 25.7341 4.17734 26.1772C7.2154 27 19.2094 27 19.2094 27C19.2094 27 31.2351 27 34.2415 26.2088C35.8871 25.7658 37.1846 24.4683 37.6277 22.8226C38.4188 19.8162 38.4188 13.5819 38.4188 13.5819C38.4188 13.5819 38.4505 7.31586 37.6277 4.30945Z" fill="white"/>
<path d="M15.3802 7.79059V19.3099L25.3805 13.5502L15.3802 7.79059Z" fill="black"/>
</svg>
